<svg width="53" height="72" viewBox="0 0 53 72" fill="none" xmlns="http://www.w3.org/2000/svg">
<path d="M52.8461 38.2954C52.5858 37.7545 52.0387 37.4115 51.4401 37.4115H37.4108V3.11763C37.4108 1.39826 36.0125 0 34.2931 0H18.705C16.9856 0 15.5874 1.39826 15.5874 3.11763V37.4115H1.55806C0.959471 37.4115 0.412327 37.7545 0.153564 38.2954C-0.106758 38.8347 -0.0334939 39.477 0.34218 39.9446L25.2816 71.1209C25.5778 71.4903 26.0252 71.7054 26.4991 71.7054C26.973 71.7054 27.4203 71.4903 27.7165 71.1209L52.6575 39.9446C53.0317 39.477 53.1049 38.8363 52.8461 38.2954ZM26.4991 67.651L4.80195 40.5292H17.1462C18.0067 40.5292 18.705 39.8308 18.705 38.9703V3.11763L34.2931 3.11607V38.9703C34.2931 39.8308 34.9915 40.5292 35.852 40.5292H48.1962L26.4991 67.651Z" fill="#5B21B6"/>
</svg>
