<svg width="53" height="53" viewBox="0 0 53 53" fill="none" xmlns="http://www.w3.org/2000/svg">
<g clip-path="url(#clip0)">
<path d="M50.7916 2.20837H2.20838C0.988703 2.20837 0 3.19708 0 4.41662C0 5.63616 0.988703 6.625 2.20838 6.625H50.7917C52.0114 6.625 53.0001 5.63629 53.0001 4.41662C53.0001 3.19695 52.0113 2.20837 50.7916 2.20837Z" fill="#5B21B6"/>
<path d="M50.7916 24.2916H2.20838C0.988703 24.2916 0 25.2803 0 26.5C0 27.7197 0.988703 28.7084 2.20838 28.7084H50.7917C52.0114 28.7084 53.0001 27.7197 53.0001 26.5C53.0001 25.2803 52.0113 24.2916 50.7916 24.2916Z" fill="#5B21B6"/>
<path d="M50.7916 46.375H2.20838C0.988703 46.375 0 47.3637 0 48.5834C0 49.8031 0.988703 50.7918 2.20838 50.7918H50.7917C52.0114 50.7918 53.0001 49.8031 53.0001 48.5834C53.0001 47.3637 52.0113 46.375 50.7916 46.375Z" fill="#5B21B6"/>
</g>
<defs>
<clipPath id="clip0">
<rect width="53" height="53" fill="white"/>
</clipPath>
</defs>
</svg>
