<svg width="53" height="71" viewBox="0 0 53 71" fill="none" xmlns="http://www.w3.org/2000/svg">
<path d="M52.6571 31.4322L27.7168 0.550088C27.1261 -0.183363 25.8728 -0.183363 25.282 0.550088L0.341752 31.4322C-0.032352 31.8955 -0.105614 32.5301 0.153142 33.0659C0.415015 33.6017 0.962142 33.9414 1.56071 33.9414H15.5896V67.9118C15.5896 69.6149 16.9878 71 18.7072 71H34.2948C36.0142 71 37.4124 69.6149 37.4124 67.9118V33.9414H51.4413C52.0399 33.9414 52.587 33.6017 52.8457 33.0659C53.106 32.5316 53.0328 31.8955 52.6571 31.4322ZM35.8536 30.8532C34.9932 30.8532 34.2948 31.545 34.2948 32.3973V67.9118H18.7072V32.3973C18.7072 31.545 18.0088 30.8532 17.1484 30.8532H4.80451L26.501 3.98727L48.1975 30.8532H35.8536Z" fill="#5B21B6"/>
</svg>
